<svg id="Capa_1" enable-background="new 0 0 512 512" height="512" viewBox="0 0 512 512" width="512" xmlns="http://www.w3.org/2000/svg"><g><g id="Page-1_29_"><g id="_x30_30---Radio"><circle id="Oval_16_" cx="256" cy="448" r="18.286"/><path id="Shape_231_" d="m210.286 355.557v-89.399c-24.379 24.813-24.379 64.585 0 89.399z"/><circle id="Oval_15_" cx="109.714" cy="18.286" r="18.286"/><path id="Shape_230_" d="m338.286 91.429c0-5.049 4.093-9.143 9.143-9.143h19.584c-1.731-5.972-1.731-12.313 0-18.286h-19.584c-15.149 0-27.429 12.28-27.429 27.429v91.429h18.286z"/><path id="Shape_229_" d="m164.571 27.429c5.049 0 9.143 4.093 9.143 9.143v146.286h18.286v-146.287c0-15.148-12.28-27.429-27.429-27.429h-19.584c.823 2.979 1.26 6.052 1.298 9.143-.039 3.091-.475 6.164-1.298 9.143h19.584z"/><path id="Rectangle-path_31_" d="m246.857 36.571h18.286v146.286h-18.286z"/><path id="Shape_228_" d="m100.571 246.857v54.857c0 5.049 4.093 9.143 9.143 9.143h9.143v-73.143h-9.143c-5.049 0-9.143 4.094-9.143 9.143z"/><path id="Shape_227_" d="m402.286 237.714h-9.143v73.143h9.143c5.049 0 9.143-4.093 9.143-9.143v-54.857c0-5.049-4.094-9.143-9.143-9.143z"/><path id="Shape_226_" d="m228.571 368.594c5.781 2.756 11.946 4.621 18.286 5.531v-126.536c-6.34.91-12.505 2.775-18.286 5.531z"/><circle id="Oval_14_" cx="402.286" cy="73.143" r="18.286"/><path id="Shape_225_" d="m356.571 201.143h-201.142c-10.099 0-18.286 8.187-18.286 18.286v274.286c0 10.099 8.187 18.286 18.286 18.286h201.143c10.099 0 18.286-8.187 18.286-18.286v-274.286c-.001-10.099-8.188-18.286-18.287-18.286zm-100.571 283.428c-20.198 0-36.571-16.374-36.571-36.571 0-20.198 16.374-36.571 36.571-36.571s36.571 16.374 36.571 36.571c0 20.198-16.373 36.571-36.571 36.571zm0-91.428c-45.445 0-82.286-36.841-82.286-82.286s36.841-82.286 82.286-82.286 82.286 36.841 82.286 82.286c-.051 45.424-36.862 82.235-82.286 82.286z"/><path id="Shape_224_" d="m301.714 355.557c24.379-24.814 24.379-64.585 0-89.399z"/><path id="Shape_223_" d="m265.143 374.126c6.34-.91 12.505-2.775 18.286-5.531v-115.475c-5.781-2.756-11.946-4.621-18.286-5.531z"/></g></g></g></svg>