<svg id="Capa_1" enable-background="new 0 0 512.499 512.499" height="512" viewBox="0 0 512.499 512.499" width="512" xmlns="http://www.w3.org/2000/svg"><g><g><path d="m283.783 414.463 8.617-75.635 6.203-43.723h-85.308l6.805 43.723 8.617 75.635 2.706 34.708h50.191z" fill="#e2dee2"/><path d="m234.31 295.105h-21.015l6.805 43.723 8.616 75.636 2.706 34.707h21.015l-2.706-34.707-4.371-38.368c-1.23-10.8 7.217-20.264 18.086-20.264h27.015l1.937-17.004 6.204-43.723z" fill="#cbc4cc"/><g><path d="m427.28 252.122-24.68-11.89-65.69-21.16c-43.543-14.019-89.849-16.316-134.302-6.911l-8.865 11.058-70.796 24.02 3.103 31.184 73.172 14.749 36.241 32.006 63.141-.074s22.807-11.411 23.439-12.219l9.918-12.684c1.54-1.97 3.79-3.27 6.27-3.62l74.89-10.65 17.33-1.03z" fill="#e2dee2"/></g><path d="m427.28 89.112c-14.86-13.42-31.63-24.74-49.89-33.53-107.95-52.01-214.91-29.16-285.82 33.53l-13.851 27.333 16.677 20.29 2.135-.898 2.224 3.015 12.655-9.301c37.21-36.92 88.41-59.75 144.84-59.75 34.23 0 68.7 8.25 102.48 24.52 16.98 8.18 32.41 19.18 45.67 32.36l1.2.68 13.717 4.371 14.731-27.239z" fill="#918291"/><path d="m321.41 313.694.632-.808c-1.205.267-2.445.409-3.703.409h-73.3c-5.27 0-10.25-2.43-13.5-6.58 0 0-9.29-11.72-17.189-21.517-7.047-8.739-10.888-19.625-10.888-30.851v-42.363c-9.045 1.882-18.017 4.237-26.873 7.088l-65.69 21.16-40.61 11.89v33.81h30.09l74.89 10.65c1.799.254 3.472 1.013 4.846 2.16.016.013.033.025.048.038.218.184.427.38.628.584.033.034.069.064.102.098.226.235.442.481.644.74 0 0 .001.001.001.001l5.466 6.99 19.594 25.06c.203.259.413.512.629.758s.439.485.668.716c.458.464.939.899 1.442 1.305s1.028.782 1.571 1.127c2.716 1.725 5.896 2.674 9.19 2.674h73.3c3.294 0 6.474-.949 9.19-2.674.543-.345 1.068-.721 1.571-1.127s.985-.841 1.442-1.305c.229-.232.451-.471.668-.716.216-.246.426-.499.629-.758z" fill="#cbc4cc"/><circle cx="256.25" cy="272.536" fill="#fee45a" r="35.284"/><path d="m248.75 272.536c0-14.554 8.813-27.046 21.392-32.44-4.264-1.828-8.959-2.844-13.892-2.844-19.487 0-35.284 15.797-35.284 35.284s15.797 35.284 35.284 35.284c4.933 0 9.628-1.016 13.892-2.844-12.579-5.394-21.392-17.886-21.392-32.44z" fill="#fed402"/><g id="XMLID_223_"><g><path d="m449.837 375.128-27.597 9.014c-10.15 15.55-22.41 29.59-36.4 41.7-12.31 10.66-28.07 16.51-44.36 16.51h-24.37c-5.09 0-9.62-3.2-11.32-7.99l-5.13-14.4c-1.18-3.29-4.3-5.5-7.8-5.5h-73.2c-3.5 0-6.63 2.2-7.8 5.5l-5.13 14.4c-1.71 4.79-6.24 7.99-11.32 7.99h-24.39c-16.29 0-32.04-5.85-44.36-16.51-13.98-12.11-26.26-26.15-36.4-41.7l-19.97-7.503-22.901 16.343 2.951 22.14c13.64 20.09 30.14 38.07 48.92 53.37 13.72 11.18 30.91 17.23 48.61 17.23h216.76c17.57 0 34.69-5.92 48.33-16.99 18.9-15.35 35.5-33.42 49.21-53.61l3.69-23.97z" fill="#d83131"/><g fill="#e94444"><path d="m107.41 230.022c3.03.28 5.11 3.16 4.43 6.12l-12.04 52.31c-.48 2.06-2.19 3.6-4.3 3.85l-26.04 3.13c-5.7.68-9.75 5.96-8.85 11.63 4.42 28.09 14.74 54.22 29.65 77.08l-39.92 30.98c-27.04-39.79-42.84-87.84-42.84-139.57 0-74.22 32.51-140.86 84.07-186.44l18.1 41.2.48 1.1c1.94 4.42 1.17 9.59-2.04 13.2-17.68 19.9-31.4 43.4-39.95 69.25-2.05 6.22 2.21 12.73 8.73 13.34z"/><path d="m476.25 154.482c46.16 95.86 33.28 190.91-14.08 260.64l-39.93-30.98c14.94-22.89 25.27-49.06 29.68-77.2.88-5.68-3.16-10.95-8.86-11.64l-25.03-3c-2.1-.25-3.82-1.79-4.29-3.85l-12.04-52.31c-.69-2.96 1.4-5.84 4.42-6.12l29.52-2.73c6.52-.6 10.78-7.12 8.73-13.33-8.44-25.59-21.96-48.87-39.35-68.64-3.5-3.98-4.09-9.73-1.48-14.33l2.06-3.63 21.68-38.25c20.27 18.28 36.97 40.45 48.97 65.37z"/></g></g></g></g><g><path d="m483.011 151.232c-12.273-25.491-29.424-48.292-50.186-67.163-.324-.357-.687-.684-1.086-.979-15.273-13.699-32.462-25.29-51.092-34.265-88.219-42.503-183.178-39.009-260.529 9.584-11.677 7.335-22.719 15.618-33.04 24.705-.371.277-.713.583-1.02.916-21.107 18.781-39.123 40.978-53.051 65.625-21.594 38.211-33.007 81.744-33.007 125.893 0 77.386 34.452 149.832 94.522 198.763 14.969 12.193 33.916 18.909 53.352 18.909h216.757c19.388 0 38.229-6.63 53.054-18.67 19.337-15.704 36.216-34.146 50.154-54.541.085-.099.176-.19.257-.294.32-.413.59-.849.812-1.3 17.228-25.614 29.848-54.244 36.886-84.381 13.936-59.684 6.059-122.896-22.783-182.802zm-354.913-80.121c38.98-24.488 82.761-36.794 127.827-36.794 39.202 0 79.38 9.313 118.212 28.022 15.744 7.585 30.385 17.173 43.591 28.414l-14.098 24.868c-12.515-11.331-26.488-20.754-41.647-28.057-34.798-16.765-70.371-25.266-105.732-25.266-26.992 0-53.325 5.007-78.266 14.882-3.852 1.524-5.737 5.883-4.213 9.734 1.524 3.852 5.887 5.738 9.734 4.212 23.176-9.176 47.65-13.828 72.744-13.828 33.089 0 66.472 8 99.223 23.779 14.9 7.179 28.553 16.6 40.645 28.026-3.092 7.031-1.884 15.31 3.267 21.167 17.069 19.407 29.809 41.625 37.863 66.038.353 1.068-.039 1.907-.305 2.312-.265.404-.876 1.098-1.996 1.202l-29.514 2.729c-3.597.332-6.874 2.201-8.991 5.128-.518.716-.951 1.479-1.302 2.272l-37.344-12.027c-3.935-1.272-8.168.896-9.438 4.839-1.271 3.943.896 8.168 4.84 9.438l43.088 13.877 1.98 8.604h-59.023c-4.143 0-7.5 3.358-7.5 7.5s3.357 7.5 7.5 7.5h62.476l2.295 9.971-66.84 9.5c-4.423.628-8.375 2.912-11.127 6.431l-25.059 32.043c-1.839 2.352-4.605 3.7-7.591 3.7h-.904c-.01 0-.021 0-.031 0h-72.364c-2.985 0-5.752-1.349-7.591-3.7l-25.059-32.043c-2.752-3.519-6.704-5.802-11.126-6.431l-66.808-9.496 2.296-9.976h61.443c4.143 0 7.5-3.358 7.5-7.5s-3.357-7.5-7.5-7.5h-57.99l1.983-8.615 61.641-19.853c46.75-15.057 96.538-16.252 143.983-3.458 4.001 1.078 8.116-1.289 9.194-5.289 1.078-3.999-1.289-8.116-5.288-9.194-50.249-13.55-102.978-12.284-152.487 3.663l-55.904 18.005c-.35-.79-.782-1.55-1.297-2.263-2.116-2.927-5.394-4.796-8.99-5.129l-30.518-2.821c-1.12-.104-1.731-.798-1.996-1.203-.266-.404-.657-1.243-.304-2.311 8.156-24.674 21.086-47.09 38.433-66.625 4.001-4.507 5.657-10.564 4.712-16.384 11.273-10.916 23.82-20.509 37.36-28.502 3.567-2.106 4.752-6.705 2.646-10.271-2.104-3.566-6.704-4.75-10.271-2.646-12.767 7.537-24.712 16.401-35.637 26.381l-11.846-26.966c8.653-7.311 17.803-14.047 27.421-20.089zm252.832 349.058c-10.931 9.466-24.941 14.679-39.451 14.679h-24.373c-1.905 0-3.615-1.206-4.255-3.001l-5.128-14.398c-2.234-6.271-8.209-10.485-14.867-10.485h-.669l6.985-61.316c5.356-1.278 10.148-4.322 13.635-8.78l25.059-32.042c.351-.449.855-.741 1.421-.821l68.903-9.793c1.992 3.008 5.233 5.095 8.947 5.541l25.029 3.001c.994.119 1.578.712 1.838 1.055.251.332.649 1.028.502 1.971-6.93 44.263-29.508 84.888-63.576 114.389zm-117.18-13.205v-22.825c0-4.142-3.357-7.5-7.5-7.5s-7.5 3.358-7.5 7.5v22.825h-13.339l-1.73-15.186c-.47-4.116-4.189-7.078-8.302-6.603-4.115.469-7.071 4.186-6.603 8.301l1.537 13.488h-.655c-6.659 0-12.634 4.214-14.867 10.486l-5.128 14.397c-.64 1.795-2.35 3.001-4.255 3.001h-24.387c-14.509 0-28.518-5.211-39.447-14.675-34.036-29.473-56.609-70.056-63.56-114.271-.148-.943.251-1.64.503-1.972.26-.343.843-.936 1.836-1.055l26.045-3.123c3.71-.445 6.95-2.53 8.943-5.537l68.874 9.789c.564.081 1.069.372 1.42.821l25.059 32.043c3.262 4.17 7.666 7.104 12.605 8.511l1.838 16.134c.437 3.828 3.681 6.652 7.442 6.652.283 0 .57-.016.858-.049 4.115-.469 7.072-4.185 6.604-8.3l-1.536-13.488h55.492l-6.907 60.636zm-217.685-249.929c11.531-20.405 26.042-39.021 42.881-55.245l14.338 32.638c.771 1.755.462 3.797-.786 5.202-18.709 21.071-32.658 45.253-41.458 71.876-1.701 5.146-.974 10.699 1.996 15.236 2.97 4.536 7.768 7.424 13.165 7.923l27.69 2.559-10.796 46.9-.217.94-24.312 2.915c-4.748.569-9.126 3.083-12.012 6.896-2.914 3.851-4.107 8.593-3.36 13.353 4.145 26.365 13.443 51.525 27.12 74.13l-28.188 21.87c-24.028-38.036-37.126-82.416-37.126-128.68 0-41.568 10.742-82.549 31.065-118.513zm362.163 305.871c-12.159 9.875-27.642 15.313-43.597 15.313h-216.757c-15.994 0-31.577-5.519-43.879-15.539-16.647-13.561-31.186-29.051-43.442-46.002l28.011-21.732c9.494 13.38 20.617 25.677 33.192 36.566 13.654 11.823 31.151 18.335 49.266 18.335h24.387c8.234 0 15.623-5.211 18.386-12.968l5.128-14.397c.11-.31.406-.519.736-.519h64.126.009.01 9.052c.33 0 .627.209.737.519l5.127 14.396c2.763 7.757 10.151 12.969 18.386 12.969h24.373c18.116 0 35.614-6.513 49.271-18.339 12.574-10.888 23.694-23.184 33.187-36.561l27.946 21.682c-12.402 17.191-27.066 32.805-43.655 46.277zm82.958-132.284c-6.09 26.082-16.622 50.968-30.886 73.552l-28.115-21.813c13.7-22.642 23.006-47.848 27.14-74.263.744-4.757-.45-9.497-3.363-13.345-2.887-3.812-7.264-6.325-12.011-6.894l-23.297-2.793-11.013-47.841 26.687-2.467c5.396-.499 10.193-3.385 13.163-7.919s3.699-10.086 2.001-15.231c-8.691-26.341-22.433-50.311-40.844-71.244-1.384-1.573-1.619-3.854-.586-5.675l19.004-33.522c16.513 16.338 30.266 35.464 40.428 56.572 27.342 56.788 34.842 116.57 21.692 172.883z"/><path d="m256.25 229.752c-23.591 0-42.784 19.193-42.784 42.784s19.193 42.784 42.784 42.784 42.784-19.193 42.784-42.784-19.193-42.784-42.784-42.784zm0 70.569c-15.32 0-27.784-12.464-27.784-27.784s12.464-27.784 27.784-27.784 27.784 12.464 27.784 27.784-12.464 27.784-27.784 27.784z"/></g></g></svg>